<svg width="300" height="300" viewBox="0 0 300 300" fill="none" xmlns="http://www.w3.org/2000/svg">
  <path fill-rule="evenodd" clip-rule="evenodd" d="M40 0C17.9086 0 0 17.9086 0 40V260C0 282.091 17.9086 300 40 300H260C282.091 300 300 282.091 300 260V40C300 17.9086 282.091 0 260 0H40ZM203.561 142.223C209.942 152.558 216.504 163.186 219.382 176.327C228.718 218.955 196.512 261.383 149.565 260.997C105.173 260.639 72.1662 219.524 81.6263 176.327C84.5024 163.193 91.0648 152.563 97.4464 142.225C103.144 132.995 108.697 123.999 111.354 113.664C117.026 91.6063 131.199 79.7137 143.81 77.0054C141.246 59.3304 127.567 50.6069 126.927 50.2084L133.717 39.1132C134.233 39.4267 140.965 43.6239 147.095 51.9298C149.695 52.8265 155.168 54.341 160.378 53.437C161.97 45.9713 168.28 39.8035 176.628 39.0468C185.452 38.242 201.113 47.8965 209.572 53.1113C210.246 53.5269 210.875 53.9143 211.45 54.266C210.948 54.715 210.398 55.2109 209.806 55.7444C202.486 62.3417 188.773 74.7015 179.934 75.503C172.519 76.1777 165.772 72.3447 162.343 66.2831C156.997 67.143 155.127 66.2894 154.811 66.6829C154.456 67.1252 156.066 69.1438 156.914 76.9452C169.617 79.5519 183.944 91.4541 189.654 113.664C192.312 124.003 197.865 132.996 203.561 142.223Z" fill="#1B1B1B"/>
</svg>
