<svg width="820" height="820" viewBox="0 0 820 820" fill="none" xmlns="http://www.w3.org/2000/svg">
<path d="M725.27 305.31C715.363 281.318 702.09 258.859 685.85 238.61C669.78 218.61 638.43 193.34 612.66 190.61C587.22 187.94 551.84 190.31 528.51 214.74C517.331 188.83 504.55 163.641 490.24 139.32C466.89 99.7797 429.68 73.4297 373.36 65.9997C346.75 62.4997 287.46 71.9997 255.82 91.3697C224.18 110.74 219.58 149.57 226.66 165.12C207.82 162.47 188.32 169.4 173.84 182.27C164.63 190.388 158.088 201.099 155.07 213C153.48 219.44 153.44 226.17 153.94 232.75C154.44 239.33 156.13 247.1 153.83 253.62C151.83 259.27 146.35 262.87 141.73 266.21C135.9 270.284 130.47 274.902 125.51 280C116.3 289.78 98.81 312.7 93.64 325.05C82.64 351.17 80.43 370.6 76.87 398.61C72.96 429.34 72.35 458.5 78.57 489.13C83.57 513.69 94.37 536.66 109.05 556.92C110.05 556.46 111.05 556.02 112.16 555.62C117.93 553.42 123.5 551.23 132.07 551.75C125.07 534.92 118.16 520.39 121.26 501.46C124.14 483.87 133.04 463.73 155.26 462.73L158.18 462.47C163.29 423.83 168.59 383.63 177.8 344.67C183.92 318.83 190.203 293.006 196.65 267.2C198.36 260.34 207.04 218.92 216.33 224.95C224.83 230.48 210.93 272.58 209.51 281.22C211.26 275.28 227.51 208.83 239.3 215.98C246.07 220.08 244.05 239.98 241 257.69C247.51 230.6 259.28 195.25 271.56 207.22C278.48 213.96 270.42 238.12 268.56 245.95C265.93 256.95 262.83 267.81 259.38 278.5C270.57 259.02 292.71 248.15 312.79 268.5C317.67 273.44 329.7 294.95 324.6 302.3C316.7 313.69 308.54 295.79 300.6 288.77C290.77 280.11 277.44 291.53 272.6 301.26C267.15 312.26 266.01 334.99 269.79 346.74C275.48 364.45 294.3 364.98 304.63 351.26C307.88 346.94 308.19 340.53 313.09 338.26C318.73 335.69 324.99 337.15 327.39 343.73C332.04 356.46 320.32 373.41 307.59 383.93C294.86 394.45 264.09 397.23 248.8 386.83C247.28 409.55 247.48 432.23 246.64 454.83L248.84 454.64C262.01 456.42 270.07 468.64 267.52 485.09C265.52 498.03 262.89 515.32 256.52 527.68C261.42 522.3 270.75 519.74 275.58 524.75C287.32 536.92 269.75 571.03 264.69 582.75C265.56 581.3 268.4 579.86 269.69 578.55C296 599.88 269.97 650.24 264.52 675.55C272.06 662.32 279.45 664.31 285.06 669.82C289.83 674.49 295.2 683.4 296.56 689.82C296.91 691.45 297.29 693.18 297.68 694.94C303.95 682.88 312.59 670 322.06 661.32C334.06 650.32 350.06 642.32 365.44 656.66C369.06 643.32 379.27 626.93 383.06 621.82C389.617 612.949 397.55 605.184 406.56 598.82L406.91 598.9C406.55 572.79 405.75 541.62 404.7 514.57C403.371 514.602 402.045 514.427 400.77 514.05C389.7 507.05 382.77 496.88 378.42 485.38C369.37 484.38 361.18 481.43 356.56 472.83C347.31 455.52 358 447 372 443.15C372 442.68 372 442.15 372 441.72C372.05 429.12 373.94 415.61 382.3 405.64C387.497 399.249 394.98 395.135 403.16 394.17C402.795 390.923 403.273 387.638 404.548 384.63C405.824 381.622 407.853 378.994 410.44 377C417.64 371.2 427.65 369.68 436.62 369.27C458.89 368.27 480.81 376.48 503.09 373.27C507.43 372.65 510.21 378 506.17 380.58C501.73 383.42 497.167 386.03 492.48 388.41C510.28 392.69 527.73 399.07 543.48 403.63C557.16 407.58 569.03 412.02 589.08 420.63C575.38 427.97 514.64 446.78 514.64 446.78C514.64 446.78 518.83 487.83 520.48 503.63C522.12 519.25 526.97 565.01 529.59 589.63C550.07 594.15 576.52 604.85 598.26 616.63C618.874 628.163 638.819 640.853 658 654.64C660.46 651.64 662.87 648.64 665.22 645.46C702.864 595.113 728.544 536.852 740.31 475.1C750.91 418.42 747.49 358.88 725.27 305.31ZM547.5 282.18C528.99 288.18 514.97 292.3 496 296.68C470.83 302.48 446.49 308.33 421 312.68C398.21 316.57 372.32 320.96 349.5 323.68C338.19 325.03 311.5 331.68 311.5 324.68C312.97 311.53 371.5 299.68 371.5 299.68C371.5 299.68 362.77 266.11 360.01 253.34C355.78 233.73 350.45 211.56 354.01 191.18C357.16 173.18 375.22 161.5 393.52 165.7C398.03 166.7 402.69 169.33 407.08 172.7C412.86 165.55 421.18 158.7 430.5 158.84C450.3 159.17 462.16 186.62 470.15 201.61C482.21 224.25 487.84 250.06 497.52 272.61C497.52 272.61 526.07 268.5 542.02 265.61C551.02 263.98 578.29 255.93 581.52 263.11C584.75 270.29 557.09 279.08 547.5 282.18Z" fill="#E7E7E7"/>
<path d="M87.499 622.68C85.759 606.83 83.369 588.88 90.999 574.18C95.679 565.18 102.169 559.36 112.159 555.57C117.929 553.37 123.499 551.18 132.069 551.7C125.069 534.87 118.159 520.34 121.259 501.41C124.139 483.82 133.039 463.68 155.259 462.68" stroke="#333333" stroke-width="7" stroke-linecap="round" stroke-linejoin="round"/>
<path d="M248.75 454.549C261.92 456.329 269.98 468.549 267.43 484.999C265.16 499.689 262.08 519.999 253.65 532.319C256.14 524.069 269.4 518.319 275.5 524.659C287.24 536.829 269.67 570.939 264.61 582.659C265.48 581.209 268.32 579.769 269.61 578.459C295.92 599.789 269.89 650.149 264.44 675.459C271.98 662.229 279.37 664.219 284.98 669.729C289.75 674.399 295.12 683.309 296.48 689.729C298.2 697.799 300.68 707.879 301.48 716.229C301.83 719.799 300.68 727.229 298.91 730.579C296.36 735.339 290.84 733.859 288.47 729.729C284.47 722.729 291.47 707.779 294.47 701.179C300.79 687.499 310.81 671.449 321.96 661.179C333.96 650.179 349.96 642.179 365.34 656.519C368.96 643.179 379.17 626.789 382.96 621.679C389.517 612.808 397.45 605.043 406.46 598.679C439 606.679 465 609.999 481 609.229C498.845 608.082 515.848 601.228 529.5 589.679C550 594.179 576.5 604.899 598.28 616.729C620.06 628.559 661.17 654.599 691.5 680.679" stroke="#333333" stroke-width="7" stroke-linecap="round" stroke-linejoin="round"/>
<path d="M631.5 689.68C610.96 689.91 592.5 690.73 572.5 695.68" stroke="#333333" stroke-width="7" stroke-linecap="round" stroke-linejoin="round"/>
<path d="M599.5 682.68C603.3 691.32 603.5 718.68 603.5 718.68" stroke="#333333" stroke-width="7" stroke-linecap="round" stroke-linejoin="round"/>
<path d="M609.5 679.68C615.97 687.06 615.5 699.03 615.5 708.68" stroke="#333333" stroke-width="7" stroke-linecap="round" stroke-linejoin="round"/>
<path d="M483.499 656.68C478.139 670.68 469.699 694.68 476.309 708.68C482.309 721.37 495.669 717.53 503.499 729.62C508.319 737.07 509.039 746.05 510.499 754.68" stroke="#333333" stroke-width="7" stroke-linecap="round" stroke-linejoin="round"/>
<path d="M401.5 622.679C412.55 636.499 432.34 657.969 450.5 658.179C469.5 658.389 475.92 640.729 487.5 628.079C494.1 638.379 502.98 654.409 517.5 647.699C530.41 641.759 538.64 619.889 538.5 606.699" stroke="#333333" stroke-width="7" stroke-linecap="round" stroke-linejoin="round"/>
<path d="M406.5 598.679C406.38 561.259 405.36 523.519 403.35 485.829C387.42 484.929 365.35 489.209 356.5 472.689C343.17 447.799 371.55 441.019 391.35 440.529C394.85 418.269 405.06 398.969 427.9 389.529C464.95 374.269 508.38 393.529 543.5 403.649C557.18 407.599 569.05 412.039 589.1 420.649C575.4 427.989 514.66 446.799 514.66 446.799C514.66 446.799 518.85 487.849 520.5 503.649L529.5 589.649" stroke="#333333" stroke-width="7" stroke-linecap="round" stroke-linejoin="round"/>
<path d="M462.5 427.68L465.5 437.68" stroke="#333333" stroke-width="7" stroke-linecap="round" stroke-linejoin="round"/>
<path d="M479.5 425.68L482.5 434.68" stroke="#333333" stroke-width="7" stroke-linecap="round" stroke-linejoin="round"/>
<path d="M466.5 469.68C471.67 477.23 480.29 477.04 489.5 474.68" stroke="#333333" stroke-width="7" stroke-linecap="round" stroke-linejoin="round"/>
<path d="M373.379 462.23C378.479 462.68 383.909 464.07 388.629 465.12" stroke="#333333" stroke-width="7" stroke-linecap="round" stroke-linejoin="round"/>
<path d="M156.5 474.679C162.16 432.329 167.56 387.679 177.75 344.619C183.87 318.779 190.153 292.955 196.6 267.149C198.31 260.289 206.99 218.869 216.28 224.899C224.78 230.429 210.88 272.529 209.46 281.169C211.21 275.229 227.46 208.779 239.25 215.929C250.65 222.839 237.11 274.619 235.73 285.169C235.73 278.219 253.04 189.169 271.51 207.169C278.43 213.909 270.37 238.069 268.51 245.899C264.194 263.699 258.852 281.235 252.51 298.419C256.6 268.729 286.51 241.789 312.78 268.419C317.66 273.359 329.69 294.869 324.59 302.219C316.69 313.609 308.53 295.709 300.59 288.689C290.76 280.029 277.43 291.449 272.59 301.179C267.14 312.179 266 334.909 269.78 346.659C275.48 364.369 294.29 364.899 304.62 351.179C307.87 346.859 308.18 340.449 313.08 338.179C318.72 335.609 324.98 337.069 327.38 343.649C332.03 356.379 320.31 373.329 307.58 383.849C294.85 394.369 264.08 397.149 248.79 386.749C247.24 409.939 247.49 433.089 246.58 456.109C246.26 464.299 245.9 467.869 236.73 469.839C226.04 472.139 212.15 474.279 200.58 475.649C187.91 477.159 160.24 476.829 156.5 474.679Z" stroke="#333333" stroke-width="7" stroke-linecap="round" stroke-linejoin="round"/>
<path d="M164.5 423.68C177.5 425.48 189.5 423.48 202.5 422.68C218.82 421.68 231.27 417.49 247.5 414.68" stroke="#333333" stroke-width="7" stroke-linecap="round" stroke-linejoin="round"/>
<path d="M424.499 192.679C418.159 181.789 405.299 168.409 393.499 165.679C375.199 161.479 357.138 173.119 353.988 191.159C350.438 211.539 355.768 233.709 359.988 253.319C362.748 266.089 371.479 299.659 371.479 299.659C371.479 299.659 312.959 311.509 311.479 324.659C311.479 331.659 338.169 325.009 349.479 323.659C372.299 320.939 398.189 316.549 420.979 312.659C446.469 308.309 470.809 302.459 495.979 296.659C514.979 292.279 528.978 288.139 547.478 282.159C557.068 279.059 584.718 270.329 581.478 263.159C578.238 255.989 550.938 264.029 541.978 265.659C525.978 268.549 497.479 272.659 497.479 272.659C487.799 250.079 482.168 224.269 470.108 201.659C462.108 186.659 450.258 159.219 430.458 158.889C421.138 158.729 412.819 165.599 407.039 172.749" stroke="#333333" stroke-width="7" stroke-linecap="round" stroke-linejoin="round"/>
<path d="M378.359 485.24C382.669 496.74 389.639 506.91 400.709 513.91C401.203 514.219 401.763 514.407 402.344 514.459C402.924 514.511 403.508 514.426 404.049 514.21C404.049 504.75 403.859 495.29 403.349 485.83C395.719 485.4 386.679 486.15 378.359 485.24Z" fill="#333333"/>
<path d="M503.089 373.32C480.809 376.51 458.889 368.32 436.619 369.32C427.619 369.73 417.619 371.25 410.439 377.05C407.848 379.036 405.812 381.657 404.528 384.659C403.244 387.661 402.755 390.944 403.109 394.19C394.929 395.155 387.446 399.269 382.249 405.66C373.889 415.66 371.999 429.14 371.949 441.74C371.949 442.21 371.949 442.74 371.949 443.17C378.162 441.574 384.537 440.699 390.949 440.56C391.699 443.66 392.529 446.75 393.329 449.8C395.381 458.291 398.443 466.506 402.449 474.27C403.959 477.07 407.749 476.64 409.349 474.27C418.759 460.42 429.059 445.58 432.349 428.82C433.599 422.41 433.769 415.34 430.689 409.38C430.027 408.091 429.2 406.894 428.229 405.82C455.935 404.253 482.772 395.585 506.159 380.65C510.209 378.05 507.429 372.7 503.089 373.32Z" fill="#333333"/>
<path d="M466 251.46C466 251.46 479.91 249.76 486.51 248.9" stroke="#333333" stroke-width="7" stroke-linecap="round" stroke-linejoin="round"/>
<path d="M370 288.18C404.5 279.7 440 271.52 475.5 266.68C480.39 266.01 488.23 266.18 492.5 263.68" stroke="#333333" stroke-width="7" stroke-linecap="round" stroke-linejoin="round"/>
<path d="M366.5 274.68C375.81 269.53 392.85 264.98 402.5 262.68C414.04 259.95 431.5 257.78 447.55 254.68" stroke="#333333" stroke-width="7" stroke-linecap="round" stroke-linejoin="round"/>
</svg>
